<svg width="25" height="26" viewBox="0 0 25 26" fill="none" xmlns="http://www.w3.org/2000/svg">
<path d="M7.65789 21.4C8.21291 23.4702 10.1703 25 12.5 25C14.8297 25 16.7871 23.4702 17.3421 21.4M1.03622 16.3235C0.778802 17.9963 1.92969 19.1574 3.3388 19.7361C8.74108 21.9546 16.2589 21.9546 21.6611 19.7361C23.0703 19.1574 24.2212 17.9963 23.9638 16.3235C23.8056 15.2955 23.0233 14.4394 22.4437 13.6035C21.6846 12.4952 21.6092 11.2862 21.6091 10C21.6091 5.02943 17.5308 1 12.5 1C7.46921 1 3.39095 5.02943 3.39095 10C3.39083 11.2862 3.3154 12.4952 2.55627 13.6035C1.9767 14.4394 1.19442 15.2955 1.03622 16.3235Z" stroke="#141B34" stroke-width="1.5" stroke-linecap="round" stroke-linejoin="round"/>
</svg>
