<svg width="20" height="18" viewBox="0 0 20 18" fill="none" xmlns="http://www.w3.org/2000/svg">
<path d="M1 3.25C0.585786 3.25 0.25 3.58579 0.25 4C0.25 4.41421 0.585786 4.75 1 4.75V3.25ZM1 13.25C0.585786 13.25 0.25 13.5858 0.25 14C0.25 14.4142 0.585786 14.75 1 14.75V13.25ZM7 14.75C7.41421 14.75 7.75 14.4142 7.75 14C7.75 13.5858 7.41421 13.25 7 13.25V14.75ZM19 14.75C19.4142 14.75 19.75 14.4142 19.75 14C19.75 13.5858 19.4142 13.25 19 13.25V14.75ZM13 3.25C12.5858 3.25 12.25 3.58579 12.25 4C12.25 4.41421 12.5858 4.75 13 4.75V3.25ZM19 4.75C19.4142 4.75 19.75 4.41421 19.75 4C19.75 3.58579 19.4142 3.25 19 3.25V4.75ZM4.15224 2.23463L3.45933 1.94761L3.45933 1.94762L4.15224 2.23463ZM5.23463 1.15224L4.94762 0.459327L4.94761 0.459332L5.23463 1.15224ZM8.7654 1.15224L9.05244 0.459343L9.05237 0.459314L8.7654 1.15224ZM9.8478 2.23463L10.5407 1.94769L10.5407 1.9476L9.8478 2.23463ZM9.8478 5.76537L10.5407 6.0524L10.5407 6.05231L9.8478 5.76537ZM8.7654 6.84776L9.05237 7.54069L9.05244 7.54066L8.7654 6.84776ZM5.23463 6.84776L4.94761 7.54067L4.94762 7.54067L5.23463 6.84776ZM4.15224 5.76537L3.45933 6.05238L3.45933 6.05239L4.15224 5.76537ZM10.1522 12.2346L9.45931 11.9475L9.45925 11.9477L10.1522 12.2346ZM11.2346 11.1522L10.9477 10.4592L10.9475 10.4593L11.2346 11.1522ZM14.7654 11.1522L15.0525 10.4593L15.0523 10.4592L14.7654 11.1522ZM15.8478 12.2346L16.5408 11.9477L16.5407 11.9475L15.8478 12.2346ZM15.8478 15.7654L16.5407 16.0525L16.5408 16.0523L15.8478 15.7654ZM14.7654 16.8478L15.0523 17.5408L15.0525 17.5407L14.7654 16.8478ZM11.2346 16.8478L10.9475 17.5407L10.9477 17.5408L11.2346 16.8478ZM10.1522 15.7654L9.45925 16.0523L9.45931 16.0525L10.1522 15.7654ZM1 4.75H4V3.25H1V4.75ZM1 14.75H7V13.25H1V14.75ZM16 14.75H19V13.25H16V14.75ZM13 4.75H19V3.25H13V4.75ZM4.75 4C4.75 3.5238 4.75041 3.20421 4.76729 2.95674C4.78371 2.71602 4.81319 2.5988 4.84515 2.52164L3.45933 1.94762C3.33905 2.23801 3.2924 2.53754 3.27077 2.85464C3.24959 3.165 3.25 3.54432 3.25 4H4.75ZM4.84515 2.52165C4.97202 2.21536 5.21536 1.97202 5.52165 1.84515L4.94761 0.459332C4.2738 0.738443 3.73844 1.2738 3.45933 1.94761L4.84515 2.52165ZM5.52164 1.84515C5.5988 1.81319 5.71602 1.78371 5.95674 1.76729C6.20421 1.75041 6.5238 1.75 7 1.75V0.25C6.54432 0.25 6.165 0.249594 5.85464 0.27077C5.53754 0.292405 5.23801 0.339047 4.94762 0.459327L5.52164 1.84515ZM7 1.75C7.4762 1.75 7.79579 1.75041 8.04325 1.76729C8.28397 1.78371 8.40122 1.81319 8.47843 1.84517L9.05237 0.459314C8.76198 0.339048 8.46247 0.292405 8.14536 0.270769C7.83499 0.249594 7.45568 0.25 7 0.25V1.75ZM8.47836 1.84514C8.78464 1.97202 9.02803 2.21539 9.1549 2.52166L10.5407 1.9476C10.2616 1.27377 9.72616 0.738442 9.05244 0.459343L8.47836 1.84514ZM9.15486 2.52157C9.18682 2.59875 9.21629 2.71599 9.23271 2.95673C9.24959 3.2042 9.25 3.5238 9.25 4H10.75C10.75 3.54432 10.7504 3.16501 10.7292 2.85465C10.7076 2.53756 10.661 2.23806 10.5407 1.94769L9.15486 2.52157ZM9.25 4C9.25 4.4762 9.24959 4.7958 9.23271 5.04327C9.21629 5.28401 9.18682 5.40125 9.15486 5.47843L10.5407 6.05231C10.661 5.76194 10.7076 5.46244 10.7292 5.14535C10.7504 4.83499 10.75 4.45568 10.75 4H9.25ZM9.1549 5.47834C9.02803 5.78461 8.78464 6.02798 8.47836 6.15486L9.05244 7.54066C9.72616 7.26156 10.2616 6.72623 10.5407 6.0524L9.1549 5.47834ZM8.47843 6.15483C8.40122 6.18681 8.28397 6.21629 8.04325 6.23271C7.79579 6.24959 7.4762 6.25 7 6.25V7.75C7.45568 7.75 7.83499 7.75041 8.14536 7.72923C8.46247 7.70759 8.76198 7.66095 9.05237 7.54069L8.47843 6.15483ZM7 6.25C6.5238 6.25 6.20421 6.24959 5.95674 6.23271C5.71602 6.21629 5.5988 6.18681 5.52164 6.15485L4.94762 7.54067C5.23801 7.66095 5.53754 7.70759 5.85464 7.72923C6.165 7.75041 6.54432 7.75 7 7.75V6.25ZM5.52165 6.15485C5.21536 6.02798 4.97202 5.78464 4.84515 5.47835L3.45933 6.05239C3.73844 6.72621 4.2738 7.26156 4.94761 7.54067L5.52165 6.15485ZM4.84515 5.47836C4.81319 5.4012 4.78371 5.28398 4.76729 5.04326C4.75041 4.79579 4.75 4.4762 4.75 4H3.25C3.25 4.45568 3.24959 4.835 3.27077 5.14536C3.2924 5.46246 3.33905 5.76199 3.45933 6.05238L4.84515 5.47836ZM10.75 14C10.75 13.5238 10.7504 13.2042 10.7673 12.9567C10.7837 12.716 10.8132 12.5987 10.8452 12.5215L9.45925 11.9477C9.33902 12.2381 9.29239 12.5376 9.27076 12.8546C9.24959 13.165 9.25 13.5443 9.25 14H10.75ZM10.8451 12.5217C10.972 12.2154 11.2154 11.972 11.5217 11.8451L10.9475 10.4593C10.2738 10.7384 9.73843 11.2738 9.45931 11.9475L10.8451 12.5217ZM11.5215 11.8452C11.5987 11.8132 11.716 11.7837 11.9567 11.7673C12.2042 11.7504 12.5238 11.75 13 11.75V10.25C12.5443 10.25 12.165 10.2496 11.8546 10.2708C11.5376 10.2924 11.2381 10.339 10.9477 10.4592L11.5215 11.8452ZM13 11.75C13.4762 11.75 13.7958 11.7504 14.0433 11.7673C14.284 11.7837 14.4013 11.8132 14.4785 11.8452L15.0523 10.4592C14.7619 10.339 14.4624 10.2924 14.1454 10.2708C13.835 10.2496 13.4557 10.25 13 10.25V11.75ZM14.4783 11.8451C14.7846 11.972 15.028 12.2154 15.1549 12.5217L16.5407 11.9475C16.2616 11.2738 15.7262 10.7384 15.0525 10.4593L14.4783 11.8451ZM15.1548 12.5215C15.1868 12.5987 15.2163 12.716 15.2327 12.9567C15.2496 13.2042 15.25 13.5238 15.25 14H16.75C16.75 13.5443 16.7504 13.165 16.7292 12.8546C16.7076 12.5375 16.661 12.2381 16.5408 11.9477L15.1548 12.5215ZM15.25 14C15.25 14.4762 15.2496 14.7958 15.2327 15.0433C15.2163 15.284 15.1868 15.4013 15.1548 15.4785L16.5408 16.0523C16.661 15.7619 16.7076 15.4625 16.7292 15.1454C16.7504 14.835 16.75 14.4557 16.75 14H15.25ZM15.1549 15.4783C15.028 15.7846 14.7846 16.028 14.4783 16.1549L15.0525 17.5407C15.7262 17.2616 16.2616 16.7262 16.5407 16.0525L15.1549 15.4783ZM14.4785 16.1548C14.4013 16.1868 14.284 16.2163 14.0433 16.2327C13.7958 16.2496 13.4762 16.25 13 16.25V17.75C13.4557 17.75 13.835 17.7504 14.1454 17.7292C14.4625 17.7076 14.7619 17.661 15.0523 17.5408L14.4785 16.1548ZM13 16.25C12.5238 16.25 12.2042 16.2496 11.9567 16.2327C11.716 16.2163 11.5987 16.1868 11.5215 16.1548L10.9477 17.5408C11.2381 17.661 11.5375 17.7076 11.8546 17.7292C12.165 17.7504 12.5443 17.75 13 17.75V16.25ZM11.5217 16.1549C11.2154 16.028 10.972 15.7846 10.8451 15.4783L9.45931 16.0525C9.73843 16.7262 10.2738 17.2616 10.9475 17.5407L11.5217 16.1549ZM10.8452 15.4785C10.8132 15.4013 10.7837 15.284 10.7673 15.0433C10.7504 14.7958 10.75 14.4762 10.75 14H9.25C9.25 14.4557 9.24959 14.835 9.27076 15.1454C9.29239 15.4624 9.33902 15.7619 9.45925 16.0523L10.8452 15.4785Z" fill="#FFFAFA"/>
</svg>
