<svg width="24" height="26" viewBox="0 0 24 26" fill="none" xmlns="http://www.w3.org/2000/svg">
<path d="M13.9758 24.2404C13.4459 24.7276 12.7375 25 12.0002 25C11.2629 25 10.5546 24.7276 10.0246 24.2404C5.17104 19.7512 -1.33327 14.7363 1.83869 7.45559C3.55373 3.51899 7.67061 1 12.0002 1C16.3298 1 20.4467 3.51899 22.1618 7.45559C25.3297 14.7272 18.8414 19.7667 13.9758 24.2404Z" stroke="#2D1E2F" stroke-width="1.5"/>
<path d="M16.2762 11.8C16.2762 14.1196 14.3612 16 11.9989 16C9.63655 16 7.72153 14.1196 7.72153 11.8C7.72153 9.4804 9.63655 7.6 11.9989 7.6C14.3612 7.6 16.2762 9.4804 16.2762 11.8Z" stroke="#2D1E2F" stroke-width="1.5"/>
</svg>
