<svg width="24" height="20" viewBox="0 0 24 20" fill="none" xmlns="http://www.w3.org/2000/svg">
<path d="M2.15808 2.70201L1.59274 2.20917L1.59273 2.20918L2.15808 2.70201ZM2.76821 2.11473L3.23945 2.69819L3.23946 2.69818L2.76821 2.11473ZM21.2318 2.11473L20.7605 2.69817L20.7605 2.69822L21.2318 2.11473ZM21.8419 2.70201L22.4073 2.20918L22.4072 2.20916L21.8419 2.70201ZM21.8419 17.298L21.2766 16.8052L21.2766 16.8052L21.8419 17.298ZM21.2318 17.8852L20.7605 17.3018L20.7605 17.3018L21.2318 17.8852ZM2.76821 17.8852L2.29693 18.4687L2.29694 18.4687L2.76821 17.8852ZM2.15808 17.298L2.72346 16.8052L2.72343 16.8052L2.15808 17.298ZM9.8 13.75C9.38579 13.75 9.05 14.0858 9.05 14.5C9.05 14.9142 9.38579 15.25 9.8 15.25V13.75ZM11.45 15.25C11.8642 15.25 12.2 14.9142 12.2 14.5C12.2 14.0858 11.8642 13.75 11.45 13.75V15.25ZM14.75 13.75C14.3358 13.75 14 14.0858 14 14.5C14 14.9142 14.3358 15.25 14.75 15.25V13.75ZM18.6 15.25C19.0142 15.25 19.35 14.9142 19.35 14.5C19.35 14.0858 19.0142 13.75 18.6 13.75V15.25ZM1.75 10C1.75 7.99078 1.75136 6.55342 1.889 5.44961C2.02422 4.36512 2.28114 3.70221 2.72343 3.19484L1.59273 2.20918C0.876937 3.0303 0.554821 4.02654 0.400523 5.26401C0.248635 6.48216 0.25 8.02956 0.25 10H1.75ZM2.72342 3.19485C2.8798 3.01547 3.05243 2.84924 3.23945 2.69819L2.29696 1.53126C2.04249 1.7368 1.80682 1.9636 1.59274 2.20917L2.72342 3.19485ZM3.23946 2.69818C3.77312 2.26715 4.4742 2.01587 5.61231 1.88439C6.76538 1.75117 8.26478 1.75 10.35 1.75V0.25C8.30078 0.25 6.69935 0.248826 5.44017 0.394297C4.16603 0.541494 3.14343 0.847581 2.29695 1.53127L3.23946 2.69818ZM10.35 1.75H13.65V0.25H10.35V1.75ZM13.65 1.75C15.7352 1.75 17.2346 1.75117 18.3877 1.88439C19.5258 2.01587 20.2269 2.26715 20.7605 2.69817L21.703 1.53129C20.8566 0.847581 19.834 0.541494 18.5598 0.394297C17.3007 0.248826 15.6992 0.25 13.65 0.25V1.75ZM20.7605 2.69822C20.9476 2.84926 21.1202 3.01548 21.2766 3.19487L22.4072 2.20916C22.1932 1.96359 21.9575 1.73678 21.703 1.53124L20.7605 2.69822ZM21.2766 3.19484C21.7189 3.70221 21.9758 4.36512 22.111 5.44961C22.2486 6.55342 22.25 7.99078 22.25 10H23.75C23.75 8.02956 23.7514 6.48216 23.5995 5.26401C23.4452 4.02654 23.1231 3.0303 22.4073 2.20918L21.2766 3.19484ZM22.25 10C22.25 12.0092 22.2486 13.4466 22.111 14.5504C21.9758 15.6349 21.7189 16.2978 21.2766 16.8052L22.4073 17.7908C23.1231 16.9697 23.4452 15.9735 23.5995 14.736C23.7514 13.5178 23.75 11.9705 23.75 10H22.25ZM21.2766 16.8052C21.1203 16.9845 20.9476 17.1506 20.7605 17.3018L21.703 18.4687C21.9574 18.2632 22.1931 18.0365 22.4073 17.7908L21.2766 16.8052ZM20.7605 17.3018C20.2269 17.7328 19.5258 17.9841 18.3877 18.1156C17.2346 18.2488 15.7352 18.25 13.65 18.25V19.75C15.6992 19.75 17.3007 19.7512 18.5599 19.6057C19.834 19.4585 20.8566 19.1524 21.703 18.4687L20.7605 17.3018ZM13.65 18.25H10.35V19.75H13.65V18.25ZM10.35 18.25C8.26478 18.25 6.76538 18.2488 5.61232 18.1156C4.4742 17.9841 3.77313 17.7328 3.23947 17.3018L2.29694 18.4687C3.14342 19.1524 4.16603 19.4585 5.44016 19.6057C6.69935 19.7512 8.30078 19.75 10.35 19.75V18.25ZM3.23948 17.3018C3.05235 17.1506 2.87974 16.9845 2.72346 16.8052L1.5927 17.7908C1.80688 18.0365 2.04257 18.2632 2.29693 18.4687L3.23948 17.3018ZM2.72343 16.8052C2.28114 16.2978 2.02422 15.6349 1.889 14.5504C1.75136 13.4466 1.75 12.0092 1.75 10H0.25C0.25 11.9705 0.248635 13.5178 0.400523 14.736C0.554821 15.9735 0.876939 16.9697 1.59273 17.7908L2.72343 16.8052ZM9.8 15.25H11.45V13.75H9.8V15.25ZM14.75 15.25H18.6V13.75H14.75V15.25ZM1 7.375H23V5.875H1V7.375Z" fill="#A663CC"/>
</svg>
