<svg width="19" height="23" viewBox="0 0 19 23" fill="none" xmlns="http://www.w3.org/2000/svg">
<path d="M9.00001 16.225C9.00001 16.5011 9.22386 16.725 9.50001 16.725C9.77615 16.725 10 16.5011 10 16.225H9.00001ZM10 14.125C10 13.8489 9.77615 13.625 9.50001 13.625C9.22386 13.625 9.00001 13.8489 9.00001 14.125H10ZM1.28455 18.6869L1.77997 18.6194L1.77997 18.6194L1.28455 18.6869ZM4.78214 21.8959L4.75944 22.3954H4.75945L4.78214 21.8959ZM14.2178 21.8959L14.2405 22.3954H14.2405L14.2178 21.8959ZM17.7155 18.6869L18.2109 18.7544L18.2109 18.7544L17.7155 18.6869ZM17.7155 11.6631L18.2109 11.5956L18.2109 11.5956L17.7155 11.6631ZM14.2178 8.45404L14.2405 7.95456H14.2405L14.2178 8.45404ZM4.78214 8.45404L4.75945 7.95456H4.75944L4.78214 8.45404ZM1.28455 11.6631L1.77997 11.7306L1.77997 11.7306L1.28455 11.6631ZM4.21876 8.35C4.21876 8.62614 4.44262 8.85 4.71876 8.85C4.9949 8.85 5.21876 8.62614 5.21876 8.35H4.21876ZM13.7813 8.35C13.7813 8.62614 14.0051 8.85 14.2813 8.85C14.5574 8.85 14.7813 8.62614 14.7813 8.35H13.7813ZM10 16.225V14.125H9.00001V16.225H10ZM0.789124 18.7544C1.0601 20.7434 2.72537 22.303 4.75944 22.3954L4.80483 21.3965C3.26141 21.3263 1.98687 20.1381 1.77997 18.6194L0.789124 18.7544ZM4.75945 22.3954C6.27237 22.4641 7.80892 22.5 9.50001 22.5V21.5C7.82361 21.5 6.3022 21.4645 4.80482 21.3965L4.75945 22.3954ZM9.50001 22.5C11.1911 22.5 12.7276 22.4641 14.2405 22.3954L14.1951 21.3965C12.6978 21.4645 11.1764 21.5 9.50001 21.5V22.5ZM14.2405 22.3954C16.2747 22.303 17.9399 20.7434 18.2109 18.7544L17.22 18.6194C17.0131 20.1381 15.7386 21.3263 14.1951 21.3965L14.2405 22.3954ZM18.2109 18.7544C18.3677 17.603 18.5 16.4036 18.5 15.175H17.5C17.5 16.3354 17.375 17.4819 17.22 18.6195L18.2109 18.7544ZM18.5 15.175C18.5 13.9464 18.3677 12.747 18.2109 11.5956L17.22 11.7305C17.375 12.8681 17.5 14.0146 17.5 15.175H18.5ZM18.2109 11.5956C17.9399 9.60661 16.2747 8.04698 14.2405 7.95456L14.1951 8.95353C15.7386 9.02365 17.0131 10.2119 17.22 11.7306L18.2109 11.5956ZM14.2405 7.95456C12.7276 7.88583 11.1911 7.85 9.50001 7.85V8.85C11.1764 8.85 12.6978 8.88551 14.1951 8.95353L14.2405 7.95456ZM9.50001 7.85C7.80892 7.85 6.27237 7.88583 4.75945 7.95456L4.80483 8.95353C6.30219 8.88551 7.8236 8.85 9.50001 8.85V7.85ZM4.75944 7.95456C2.72536 8.04698 1.0601 9.60661 0.789124 11.5956L1.77997 11.7306C1.98687 10.2119 3.26141 9.02365 4.80483 8.95353L4.75944 7.95456ZM0.789125 11.5956C0.632245 12.747 0.5 13.9464 0.5 15.175H1.5C1.5 14.0146 1.62499 12.8681 1.77997 11.7306L0.789125 11.5956ZM0.5 15.175C0.5 16.4036 0.632245 17.603 0.789125 18.7544L1.77997 18.6194C1.62499 17.4819 1.5 16.3354 1.5 15.175H0.5ZM5.21876 8.35V5.725H4.21876V8.35H5.21876ZM5.21876 5.725C5.21876 3.39716 7.12994 1.5 9.50001 1.5V0.5C6.58885 0.5 4.21876 2.83375 4.21876 5.725H5.21876ZM9.50001 1.5C11.8701 1.5 13.7813 3.39716 13.7813 5.725H14.7813C14.7813 2.83375 12.4112 0.5 9.50001 0.5V1.5ZM13.7813 5.725V8.35H14.7813V5.725H13.7813Z" fill="#A663CC"/>
</svg>
