<svg width="17" height="19" viewBox="0 0 17 19" fill="none" xmlns="http://www.w3.org/2000/svg">
<path d="M9.96845 1.79976L11.4643 4.99359C11.6683 5.43818 12.2122 5.86463 12.6712 5.94628L15.3824 6.42717C17.1162 6.73567 17.5242 8.07854 16.2748 9.40325L14.167 11.6534C13.81 12.0345 13.6146 12.7694 13.725 13.2957L14.3285 16.0812C14.8044 18.2861 13.708 19.139 11.8808 17.9866L9.33954 16.3807C8.88062 16.0903 8.12421 16.0903 7.65671 16.3807L5.11553 17.9866C3.29672 19.139 2.19185 18.277 2.6678 16.0812L3.27123 13.2957C3.38171 12.7694 3.18624 12.0345 2.82927 11.6534L0.721513 9.40325C-0.51935 8.07854 -0.119893 6.73567 1.61391 6.42717L4.32511 5.94628C4.77556 5.86463 5.3195 5.43818 5.52347 4.99359L7.01929 1.79976C7.83521 0.0667468 9.16104 0.0667468 9.96845 1.79976Z" fill="#F7B32B"/>
</svg>
